<svg width="28" height="28" viewBox="0 0 28 28" fill="none" xmlns="http://www.w3.org/2000/svg">
<path d="M11.517 3.38905C12.293 2.68505 12.681 2.33305 13.107 2.16705C13.6814 1.94399 14.3185 1.94399 14.893 2.16705C15.32 2.33305 15.707 2.68505 16.483 3.38905C16.849 3.72005 17.032 3.88605 17.236 4.00905C17.511 4.17605 17.816 4.28705 18.134 4.33605C18.37 4.37305 18.616 4.36405 19.11 4.34405C20.156 4.30405 20.68 4.28405 21.113 4.43105C21.6963 4.62945 22.1843 5.03897 22.481 5.57905C22.701 5.97905 22.772 6.49905 22.914 7.53705C22.981 8.02605 23.014 8.27005 23.091 8.49705C23.195 8.80105 23.357 9.08205 23.569 9.32405C23.726 9.50405 23.921 9.65405 24.311 9.95705C25.139 10.5991 25.553 10.9201 25.791 11.3111C26.11 11.8381 26.221 12.4651 26.101 13.0701C26.011 13.5181 25.732 13.9621 25.174 14.8481C24.911 15.2651 24.779 15.4741 24.693 15.6971C24.577 15.9971 24.52 16.3171 24.527 16.6371C24.532 16.8771 24.584 17.1171 24.688 17.6001C24.91 18.6241 25.021 19.1361 24.951 19.5881C24.8569 20.1971 24.5383 20.749 24.058 21.1351C23.702 21.4211 23.203 21.5811 22.205 21.9011C21.735 22.0511 21.5 22.1271 21.291 22.2421C21.009 22.3971 20.761 22.6061 20.559 22.8561C20.409 23.0421 20.294 23.2611 20.064 23.6971C19.576 24.6241 19.332 25.0871 18.988 25.3891C18.5245 25.795 17.9259 26.013 17.31 26.0001C16.852 25.9901 16.368 25.7921 15.398 25.3961C14.941 25.2091 14.712 25.1161 14.478 25.0701C14.1627 25.0079 13.8383 25.0079 13.523 25.0701C13.288 25.1161 13.06 25.2101 12.603 25.3961C11.633 25.7921 11.148 25.9901 10.691 26.0001C10.0751 26.0133 9.47656 25.7957 9.01295 25.3901C8.66895 25.0881 8.42395 24.6241 7.93595 23.6981C7.70595 23.2611 7.59095 23.0431 7.44095 22.8571C7.23937 22.6063 6.99071 22.3974 6.70895 22.2421C6.49995 22.1271 6.26495 22.0521 5.79495 21.9021C4.79795 21.5821 4.29895 21.4221 3.94195 21.1351C3.46157 20.749 3.14302 20.1971 3.04895 19.5881C2.97895 19.1361 3.08995 18.6241 3.31195 17.6001C3.41695 17.1181 3.46895 16.8771 3.47395 16.6381C3.48047 16.3166 3.42408 15.9969 3.30795 15.6971C3.22095 15.4741 3.08995 15.2661 2.82695 14.8471C2.26795 13.9621 1.98895 13.5181 1.89995 13.0701C1.78005 12.4656 1.89064 11.8381 2.20995 11.3111C2.44695 10.9201 2.86095 10.5991 3.68995 9.95705C4.07995 9.65505 4.27395 9.50305 4.43095 9.32405C4.64295 9.08205 4.80495 8.80105 4.90895 8.49605C4.98595 8.27005 5.01895 8.02605 5.08695 7.53605C5.22795 6.49905 5.29895 5.98005 5.51995 5.57905C5.81595 5.03905 6.30395 4.62905 6.88795 4.43105C7.32095 4.28405 7.84395 4.30405 8.89095 4.34405C9.38395 4.36405 9.63095 4.37405 9.86695 4.33605C10.184 4.28705 10.489 4.17605 10.764 4.01005C10.969 3.88605 11.152 3.72005 11.517 3.38905Z" fill="url(#paint0_linear_424_7755)"/>
<path d="M9.47607 14.707L12.3551 17.586L18.1131 11.828" stroke="white" stroke-width="2" stroke-linecap="round" stroke-linejoin="round"/>
<defs>
<linearGradient id="paint0_linear_424_7755" x1="14.0005" y1="1.99976" x2="14.0005" y2="26.0006" gradientUnits="userSpaceOnUse">
<stop stop-color="#FFD027"/>
<stop offset="1" stop-color="#FFA927"/>
</linearGradient>
</defs>
</svg>
